<mxfile host="Electron" modified="2023-08-02T02:55:41.223Z" agent="Mozilla/5.0 (X11; Linux x86_64) AppleWebKit/537.36 (KHTML, like Gecko) draw.io/21.6.5 Chrome/114.0.5735.243 Electron/25.3.1 Safari/537.36" etag="f0ZeozDRpLSO4pCepiQl" version="21.6.5" type="device">
  <diagram name="Use Case Auth" id="yrRhIFTMMz9dTGVj65Gu">
    <mxGraphModel dx="1834" dy="1292" grid="0" gridSize="10" guides="1" tooltips="1" connect="1" arrows="1" fold="1" page="0" pageScale="1" pageWidth="850" pageHeight="1100" math="0" shadow="0">
      <root>
        <mxCell id="0" />
        <mxCell id="1" parent="0" />
        <mxCell id="GaS_j_fWEtVdDru6edaB-12" style="edgeStyle=entityRelationEdgeStyle;rounded=0;orthogonalLoop=1;jettySize=auto;html=1;fontSize=12;startSize=8;endSize=8;endArrow=none;endFill=0;fillColor=#dae8fc;gradientColor=#7ea6e0;strokeColor=#6c8ebf;strokeWidth=2;sketch=1;curveFitting=1;jiggle=2;" parent="1" source="GaS_j_fWEtVdDru6edaB-5" target="GaS_j_fWEtVdDru6edaB-8" edge="1">
          <mxGeometry relative="1" as="geometry" />
        </mxCell>
        <mxCell id="GaS_j_fWEtVdDru6edaB-2" value="" style="swimlane;startSize=0;fontSize=16;sketch=1;curveFitting=1;jiggle=2;" parent="1" vertex="1">
          <mxGeometry x="-39" y="-213" width="368" height="378" as="geometry" />
        </mxCell>
        <mxCell id="GaS_j_fWEtVdDru6edaB-8" value="Logout" style="ellipse;whiteSpace=wrap;html=1;fontSize=16;sketch=1;curveFitting=1;jiggle=2;" parent="GaS_j_fWEtVdDru6edaB-2" vertex="1">
          <mxGeometry x="214.5" y="72" width="120" height="80" as="geometry" />
        </mxCell>
        <mxCell id="GaS_j_fWEtVdDru6edaB-15" value="&amp;lt;&amp;lt; Authentication &amp;gt;&amp;gt;" style="text;html=1;align=center;verticalAlign=middle;resizable=0;points=[];autosize=1;strokeColor=none;fillColor=none;fontSize=16;sketch=1;curveFitting=1;jiggle=2;" parent="GaS_j_fWEtVdDru6edaB-2" vertex="1">
          <mxGeometry x="15" y="7" width="165" height="31" as="geometry" />
        </mxCell>
        <mxCell id="GaS_j_fWEtVdDru6edaB-7" value="Login" style="ellipse;whiteSpace=wrap;html=1;fontSize=16;sketch=1;curveFitting=1;jiggle=2;" parent="GaS_j_fWEtVdDru6edaB-2" vertex="1">
          <mxGeometry x="33.5" y="179" width="120" height="80" as="geometry" />
        </mxCell>
        <mxCell id="GaS_j_fWEtVdDru6edaB-3" style="edgeStyle=none;curved=1;rounded=0;orthogonalLoop=1;jettySize=auto;html=1;exitX=0.5;exitY=0;exitDx=0;exitDy=0;fontSize=12;startSize=8;endSize=8;sketch=1;curveFitting=1;jiggle=2;" parent="1" source="GaS_j_fWEtVdDru6edaB-2" target="GaS_j_fWEtVdDru6edaB-2" edge="1">
          <mxGeometry relative="1" as="geometry" />
        </mxCell>
        <mxCell id="GaS_j_fWEtVdDru6edaB-9" style="rounded=0;orthogonalLoop=1;jettySize=auto;html=1;fontSize=12;startSize=8;endSize=8;endArrow=none;endFill=0;fillColor=#e6d0de;gradientColor=#d5739d;strokeColor=#996185;strokeWidth=2;sketch=1;curveFitting=1;jiggle=2;edgeStyle=entityRelationEdgeStyle;" parent="1" source="GaS_j_fWEtVdDru6edaB-4" target="GaS_j_fWEtVdDru6edaB-7" edge="1">
          <mxGeometry relative="1" as="geometry" />
        </mxCell>
        <mxCell id="GaS_j_fWEtVdDru6edaB-10" style="edgeStyle=entityRelationEdgeStyle;rounded=0;orthogonalLoop=1;jettySize=auto;html=1;fontSize=12;startSize=8;endSize=8;endArrow=none;endFill=0;fillColor=#e6d0de;gradientColor=#d5739d;strokeColor=#996185;strokeWidth=2;sketch=1;curveFitting=1;jiggle=2;" parent="1" source="GaS_j_fWEtVdDru6edaB-4" target="GaS_j_fWEtVdDru6edaB-8" edge="1">
          <mxGeometry relative="1" as="geometry" />
        </mxCell>
        <mxCell id="GaS_j_fWEtVdDru6edaB-4" value="Praja" style="shape=umlActor;verticalLabelPosition=bottom;verticalAlign=top;html=1;outlineConnect=0;fontSize=16;sketch=1;curveFitting=1;jiggle=2;" parent="1" vertex="1">
          <mxGeometry x="-236" y="-149" width="30" height="60" as="geometry" />
        </mxCell>
        <mxCell id="GaS_j_fWEtVdDru6edaB-11" style="edgeStyle=entityRelationEdgeStyle;rounded=0;orthogonalLoop=1;jettySize=auto;html=1;fontSize=12;startSize=8;endSize=8;endArrow=none;endFill=0;fillColor=#dae8fc;gradientColor=#7ea6e0;strokeColor=#6c8ebf;strokeWidth=2;sketch=1;curveFitting=1;jiggle=2;" parent="1" source="GaS_j_fWEtVdDru6edaB-5" target="GaS_j_fWEtVdDru6edaB-7" edge="1">
          <mxGeometry relative="1" as="geometry" />
        </mxCell>
        <mxCell id="GaS_j_fWEtVdDru6edaB-5" value="Operator" style="shape=umlActor;verticalLabelPosition=bottom;verticalAlign=top;html=1;outlineConnect=0;fontSize=16;sketch=1;curveFitting=1;jiggle=2;" parent="1" vertex="1">
          <mxGeometry x="-236" y="86" width="30" height="60" as="geometry" />
        </mxCell>
        <mxCell id="GaS_j_fWEtVdDru6edaB-13" style="edgeStyle=entityRelationEdgeStyle;rounded=0;orthogonalLoop=1;jettySize=auto;html=1;fontSize=12;startSize=8;endSize=8;endArrow=none;endFill=0;fillColor=#ffcd28;gradientColor=#ffa500;strokeColor=#d79b00;strokeWidth=2;sketch=1;curveFitting=1;jiggle=2;" parent="1" source="GaS_j_fWEtVdDru6edaB-6" target="GaS_j_fWEtVdDru6edaB-8" edge="1">
          <mxGeometry relative="1" as="geometry" />
        </mxCell>
        <mxCell id="GaS_j_fWEtVdDru6edaB-14" style="edgeStyle=entityRelationEdgeStyle;rounded=0;orthogonalLoop=1;jettySize=auto;html=1;fontSize=12;startSize=8;endSize=8;endArrow=none;endFill=0;fillColor=#ffcd28;gradientColor=#ffa500;strokeColor=#d79b00;strokeWidth=2;sketch=1;curveFitting=1;jiggle=2;" parent="1" source="GaS_j_fWEtVdDru6edaB-6" target="GaS_j_fWEtVdDru6edaB-7" edge="1">
          <mxGeometry relative="1" as="geometry" />
        </mxCell>
        <mxCell id="GaS_j_fWEtVdDru6edaB-6" value="Admin" style="shape=umlActor;verticalLabelPosition=bottom;verticalAlign=top;html=1;outlineConnect=0;fontSize=16;sketch=1;curveFitting=1;jiggle=2;" parent="1" vertex="1">
          <mxGeometry x="474" y="-31.5" width="30" height="60" as="geometry" />
        </mxCell>
      </root>
    </mxGraphModel>
  </diagram>
</mxfile>
